<svg width="24" height="24" viewBox="0 0 24 24" fill="none" xmlns="http://www.w3.org/2000/svg">
<path d="M23.619 10.8487L12.519 0.208504C12.229 -0.0695015 11.771 -0.0695015 11.481 0.208504L0.37 10.8597C0.135 11.0947 0 11.4187 0 11.7497C0 12.4388 0.561 12.9998 1.25 12.9998H3V22.5C3 23.328 3.672 24 4.5 24H8.75C9.164 24 9.5 23.664 9.5 23.25V16.7498C9.5 16.6128 9.612 16.4998 9.75 16.4998H14.25C14.387 16.4998 14.5 16.6128 14.5 16.7498V23.25C14.5 23.664 14.836 24 15.25 24H19.5C20.328 24 21 23.328 21 22.5V12.9998H22.75C23.439 12.9998 24 12.4388 24 11.7497C24 11.4187 23.865 11.0947 23.619 10.8487Z" fill="black"/>
</svg>
