<svg width="24" height="24" viewBox="0 0 24 24" fill="none" xmlns="http://www.w3.org/2000/svg">
<path fill-rule="evenodd" clip-rule="evenodd" d="M0 12C0 18.6167 5.38329 24 12 24C18.6166 24 24 18.6167 24 12C24 5.38334 18.6167 0 12 0C5.38334 0 0 5.38334 0 12ZM15.2351 16.448L11.3934 12.6061C11.2342 12.4454 11.1432 12.2275 11.1432 12V4.23716C11.1432 3.76377 11.5274 3.3801 12 3.3801C12.4726 3.3801 12.8568 3.76377 12.8568 4.23716V11.6452L16.4482 15.2358C16.7818 15.5707 16.7818 16.1133 16.4482 16.448C16.2814 16.6158 16.0615 16.6994 15.8416 16.6994C15.6217 16.6994 15.4044 16.6158 15.2351 16.448Z" fill="black"/>
</svg>
