<svg width="174" height="44" viewBox="0 0 174 44" fill="none" xmlns="http://www.w3.org/2000/svg">
<g clip-path="url(#clip0_296_2)">
<path d="M18.3401 0.997319C16.9064 1.30597 15.7813 2.29166 15.2735 3.70051C15.0993 4.17842 15.0445 4.53188 14.9499 5.77146C14.9101 6.31907 14.8603 6.8617 14.8454 6.9762L14.8205 7.19026H12.6948C11.3506 7.19026 10.4993 7.21018 10.3799 7.24502C10.1459 7.30974 9.80737 7.60844 9.71278 7.82748C9.67794 7.91709 9.48876 9.21641 9.29959 10.7149C8.48316 17.2065 8.34874 18.2071 8.30394 18.2918C8.27905 18.3415 8.19442 18.4312 8.12472 18.4859C7.99529 18.5905 7.96044 18.5905 4.45077 18.5905C1.70278 18.5954 0.871412 18.6104 0.732021 18.6602C0.453239 18.7597 0.219262 18.9638 0.0599576 19.2476C-0.0595204 19.4716 -0.0844116 19.5662 -0.0844116 19.8599C-0.0794334 20.3976 0.184414 20.8008 0.687217 21.0248C0.90626 21.1244 0.995869 21.1294 5.35682 21.1294C10.1907 21.1294 9.94676 21.1443 10.3301 20.8506C10.4197 20.7859 10.5491 20.6315 10.6188 20.5121C10.7383 20.3129 10.7831 19.9744 11.3656 15.2749C11.7091 12.512 11.9978 10.1473 12.0177 10.0129L12.0476 9.77895H25.6531C38.5717 9.77895 39.2637 9.78393 39.2886 9.86358C39.3035 9.91336 39.3383 10.1673 39.3682 10.4261C39.3981 10.685 39.5425 11.9644 39.6918 13.2637C39.8412 14.5631 40.0652 16.5245 40.1847 17.6197C40.3091 18.7149 40.6028 21.3036 40.8318 23.3696C41.8573 32.4698 42.156 35.2029 42.156 35.5613C42.156 36.7262 41.484 37.702 40.3888 38.1152L40.0901 38.2297L25.7029 38.2446C15.1689 38.2545 11.2361 38.2446 11.0171 38.2048C10.5242 38.1102 10.116 37.8812 9.70781 37.4779C9.15522 36.9303 8.95111 36.4026 8.95609 35.5414C8.95609 35.2576 9.10046 33.7841 9.29461 32.1313C9.51863 30.1848 9.6182 29.1692 9.58833 29.0697C9.56841 28.985 9.49374 28.8705 9.42405 28.8108C9.29959 28.7013 9.25976 28.6963 8.36368 28.6963C7.52733 28.6963 7.41781 28.7063 7.27344 28.7959C7.09422 28.9004 6.9847 29.0846 6.9399 29.3435C6.88016 29.677 6.25788 34.9988 6.23299 35.4169C6.14836 36.6366 6.62627 38.0405 7.47755 39.056C8.13468 39.8426 9.17513 40.4997 10.2206 40.7835L10.7184 40.9179L25.23 40.9328C35.067 40.9428 39.886 40.9328 40.1946 40.898C42.3751 40.6491 44.1424 39.0959 44.6999 36.9453C44.914 36.1239 44.8941 35.7654 44.451 31.9322C44.227 30.0305 43.9582 27.6857 43.8437 26.7299C43.535 24.0118 43.0123 19.4517 42.9028 18.5158C42.848 18.0478 42.7484 17.1766 42.6788 16.5743C42.5095 15.0459 42.0316 10.909 41.8524 9.3558C41.7727 8.64391 41.6781 7.98678 41.6483 7.8922C41.5736 7.65822 41.2301 7.32467 40.9812 7.25C40.8318 7.2052 40.1598 7.19026 38.507 7.19026H36.2369L36.212 6.9762C36.1971 6.8617 36.1473 6.29418 36.1075 5.72168C36.0627 5.1442 35.9979 4.51694 35.9581 4.31781C35.6843 2.93884 34.7285 1.74406 33.4789 1.22632C32.7073 0.902732 33.0458 0.917667 25.5187 0.922645C19.6942 0.927623 18.6338 0.93758 18.3401 0.997319ZM32.3688 3.70051C32.6974 3.86479 32.9761 4.15353 33.1354 4.49703C33.2599 4.76585 33.2649 4.81564 33.2948 5.98553L33.3196 7.19026H25.5088H17.6979L17.7327 6.00544C17.7726 4.55677 17.7975 4.4572 18.2355 4.01912C18.4596 3.7951 18.6039 3.69553 18.7881 3.63579C19.0022 3.57107 19.8485 3.56112 25.5785 3.57107L32.1249 3.58103L32.3688 3.70051ZM33.3794 5.35827C33.3644 5.39809 33.3495 5.38316 33.3495 5.3284C33.3445 5.27364 33.3595 5.24377 33.3744 5.26368C33.3893 5.27861 33.3943 5.32342 33.3794 5.35827ZM17.6481 6.4037C17.6332 6.44352 17.6182 6.42859 17.6182 6.37383C17.6133 6.31907 17.6282 6.2892 17.6431 6.30911C17.6581 6.32405 17.663 6.36885 17.6481 6.4037ZM36.1174 6.90152C36.1025 6.94135 36.0876 6.92641 36.0876 6.87165C36.0826 6.81689 36.0975 6.78702 36.1124 6.80694C36.1274 6.82187 36.1324 6.86668 36.1174 6.90152ZM42.0415 11.6806C42.0266 11.7155 42.0166 11.6906 42.0166 11.6209C42.0166 11.5512 42.0266 11.5263 42.0415 11.5562C42.0515 11.591 42.0515 11.6508 42.0415 11.6806ZM42.1411 12.5767C42.1262 12.6166 42.1112 12.6016 42.1112 12.5469C42.1063 12.4921 42.1212 12.4622 42.1361 12.4821C42.1511 12.4971 42.156 12.5419 42.1411 12.5767ZM7.4427 21.0597C7.42777 21.0746 7.38296 21.0796 7.34812 21.0646C7.30829 21.0497 7.32322 21.0348 7.37798 21.0348C7.43275 21.0298 7.46262 21.0447 7.4427 21.0597ZM43.6346 25.57C43.6196 25.6098 43.6047 25.5949 43.6047 25.5401C43.5997 25.4853 43.6147 25.4555 43.6296 25.4754C43.6445 25.4903 43.6495 25.5351 43.6346 25.57Z" fill="#D85E32"/>
<path d="M24.8664 13.5873C22.3175 13.9109 19.9976 15.041 18.1159 16.868C16.0698 18.8642 14.6709 21.5973 14.2478 24.4399C14.1333 25.2364 14.1283 26.705 14.2478 27.5264C14.6759 30.5283 16.1246 33.0772 18.2055 34.486C19.8234 35.5762 21.4363 35.5862 22.5216 34.5009C23.338 33.6895 23.7711 32.7237 24.5378 30.0454C24.727 29.3733 24.7817 29.1095 24.7469 29.0497C24.6971 28.9651 24.6822 28.9651 23.3878 28.8207C22.1532 28.6814 20.9037 28.3926 19.7686 27.9744C18.7033 27.5812 17.0007 26.6453 16.6274 26.242C16.3635 25.9583 16.5975 25.789 17.1899 25.8338C18.3697 25.9234 19.7388 26.3416 22.1433 27.3522C23.8209 28.0591 24.1445 28.1586 24.7817 28.1835C25.3692 28.2084 25.3692 28.2084 26.4544 27.7903C27.2858 27.4667 27.694 27.2476 28.1819 26.8543C29.3518 25.9085 29.9044 24.5245 30.213 21.7765C30.2429 21.4878 30.2777 20.517 30.2827 19.6209C30.2927 17.8188 30.2927 17.8288 30.6063 17.8288C30.9348 17.8288 31.129 18.1573 31.3132 19.0136C31.4128 19.5015 31.4277 19.6906 31.4277 20.7311C31.4227 22.6975 31.139 23.9869 30.4569 25.112C30.1433 25.6297 30.2329 25.7541 31.0792 25.9483C31.9554 26.1524 32.6324 26.2271 33.5683 26.2271C34.6138 26.2221 34.9822 26.1474 35.6841 25.799C36.2367 25.5251 36.8241 24.9526 37.088 24.4399C37.6754 23.2999 37.5659 22.0454 36.7295 20.3826C35.47 17.8686 33.4738 15.8524 31.0792 14.6825C29.984 14.1449 28.9435 13.8163 27.7687 13.6371C27.0468 13.5276 25.5434 13.4977 24.8664 13.5873ZM25.3144 13.6421C25.2995 13.657 25.2547 13.662 25.2198 13.647C25.18 13.6321 25.1949 13.6172 25.2497 13.6172C25.3044 13.6122 25.3343 13.6271 25.3144 13.6421ZM21.5857 17.8238C23.0194 18.3017 24.4631 19.4965 25.4936 21.0547C26.3001 22.2793 27.1215 24.3901 27.1215 25.2513C27.1215 25.5152 27.0618 25.6098 26.8875 25.6098C26.7232 25.6098 26.5888 25.4505 26.1707 24.7485C25.0008 22.7921 23.7064 21.1742 22.2827 19.9047C21.9192 19.5761 21.3567 19.0932 21.0381 18.8194C20.4258 18.3067 20.2565 18.0727 20.3511 17.8985C20.4307 17.7441 20.5502 17.6993 20.8887 17.6944C21.0978 17.6944 21.3318 17.7392 21.5857 17.8238ZM30.1931 18.5008C30.1782 18.5357 30.1682 18.5108 30.1682 18.4411C30.1682 18.3714 30.1782 18.3465 30.1931 18.3764C30.203 18.4112 30.203 18.471 30.1931 18.5008ZM30.1433 21.7367C30.1284 21.7715 30.1184 21.7467 30.1184 21.677C30.1184 21.6073 30.1284 21.5824 30.1433 21.6122C30.1533 21.6471 30.1533 21.7068 30.1433 21.7367ZM14.2627 25.321C14.2478 25.3609 14.2328 25.3459 14.2328 25.2912C14.2278 25.2364 14.2428 25.2065 14.2577 25.2265C14.2726 25.2414 14.2776 25.2862 14.2627 25.321ZM25.0157 28.1288C25.0008 28.1437 24.956 28.1487 24.9211 28.1338C24.8813 28.1188 24.8962 28.1039 24.951 28.1039C25.0058 28.0989 25.0356 28.1138 25.0157 28.1288Z" fill="#D85E32"/>
<path d="M3.2757 23.9421C2.5887 24.1561 2.21036 25.0273 2.52896 25.6845C2.66338 25.9583 3.00688 26.2719 3.26575 26.3466C3.40514 26.3914 4.37092 26.4063 6.74056 26.4063H10.0212L10.2701 26.2868C10.9273 25.9831 11.1861 25.2414 10.8675 24.5892C10.7082 24.2607 10.4543 24.0367 10.1258 23.9421C9.77232 23.8375 3.6192 23.8375 3.2757 23.9421ZM4.06227 26.3416C3.98759 26.3515 3.85318 26.3515 3.76357 26.3416C3.67396 26.3316 3.7337 26.3217 3.89798 26.3217C4.06227 26.3217 4.13694 26.3316 4.06227 26.3416ZM4.38585 26.3416C4.351 26.3515 4.29127 26.3515 4.2614 26.3416C4.22655 26.3266 4.25144 26.3167 4.32113 26.3167C4.39083 26.3167 4.41572 26.3266 4.38585 26.3416ZM4.63476 26.3416C4.59992 26.3515 4.54018 26.3515 4.51031 26.3416C4.47546 26.3266 4.50035 26.3167 4.57005 26.3167C4.63974 26.3167 4.66463 26.3266 4.63476 26.3416ZM5.60552 26.3416C5.44622 26.3515 5.17739 26.3515 5.00813 26.3416C4.83389 26.3316 4.96333 26.3266 5.29189 26.3266C5.62046 26.3266 5.75985 26.3316 5.60552 26.3416ZM6.55139 26.3416C6.44685 26.3515 6.27759 26.3515 6.17802 26.3416C6.07348 26.3316 6.15811 26.3217 6.36222 26.3217C6.56633 26.3217 6.65096 26.3316 6.55139 26.3416ZM7.42258 26.3416C7.30808 26.3515 7.10398 26.3515 6.97454 26.3416C6.84511 26.3316 6.93969 26.3266 7.18363 26.3266C7.43254 26.3266 7.53708 26.3316 7.42258 26.3416ZM7.82084 26.3416C7.786 26.3515 7.72626 26.3515 7.69639 26.3416C7.66154 26.3266 7.68643 26.3167 7.75613 26.3167C7.82582 26.3167 7.85071 26.3266 7.82084 26.3416ZM8.2191 26.3416C8.15439 26.3515 8.05482 26.3515 7.99508 26.3416C7.93037 26.3316 7.98015 26.3217 8.1046 26.3217C8.22906 26.3217 8.27884 26.3316 8.2191 26.3416ZM8.59247 26.3416C8.54269 26.3515 8.46304 26.3515 8.41823 26.3416C8.36845 26.3266 8.40828 26.3167 8.50286 26.3167C8.59745 26.3167 8.63728 26.3266 8.59247 26.3416ZM9.26454 26.3416C9.17493 26.3515 9.02558 26.3515 8.94095 26.3416C8.85134 26.3316 8.92104 26.3217 9.10025 26.3217C9.27947 26.3217 9.34917 26.3316 9.26454 26.3416ZM9.78227 26.3366C9.76734 26.3515 9.72254 26.3565 9.68769 26.3416C9.64786 26.3266 9.6628 26.3117 9.71756 26.3117C9.77232 26.3067 9.80219 26.3217 9.78227 26.3366Z" fill="#D85E32"/>
</g>
<path d="M51.5173 35.4436V12.1709H55.7332V22.0232H66.5173V12.1709H70.7445V35.4436H66.5173V25.5573H55.7332V35.4436H51.5173ZM85.4661 35.4436V21.33H81.7388C80.7919 21.33 80.0646 21.5497 79.557 21.9891C79.0495 22.4285 78.7995 22.9739 78.807 23.6255C78.7995 24.277 79.0381 24.8148 79.5229 25.2391C80.0078 25.6633 80.701 25.8755 81.6025 25.8755H86.7616V28.8755H81.6025C80.2085 28.8755 79.004 28.6558 77.9888 28.2164C76.9737 27.777 76.1934 27.1558 75.6479 26.3527C75.1025 25.5497 74.8298 24.6103 74.8298 23.5345C74.8298 22.4133 75.1063 21.4398 75.6593 20.6141C76.2199 19.7808 77.0154 19.1368 78.0457 18.6823C79.0835 18.2202 80.3146 17.9891 81.7388 17.9891H89.3184V35.4436H85.4661ZM74.1934 35.4436L79.0684 26.4891H83.1252L78.2388 35.4436H74.1934ZM103.506 30.6595L108.688 17.9891H112.006L104.949 35.4436H102.074L95.1763 17.9891H98.4604L103.506 30.6595ZM97.4263 17.9891V35.4436H93.4604V17.9891H97.4263ZM109.756 35.4436V17.9891H113.688V35.4436H109.756ZM118.017 35.4436V12.1709H126.745C128.532 12.1709 130.032 12.5042 131.245 13.1709C132.464 13.8376 133.385 14.7542 134.006 15.9209C134.635 17.08 134.949 18.3982 134.949 19.8755C134.949 21.3679 134.635 22.6936 134.006 23.8527C133.377 25.0118 132.449 25.9247 131.222 26.5914C129.995 27.2505 128.483 27.58 126.688 27.58H120.904V24.1141H126.12C127.165 24.1141 128.021 23.9323 128.688 23.5686C129.354 23.205 129.847 22.705 130.165 22.0686C130.491 21.4323 130.654 20.7012 130.654 19.8755C130.654 19.0497 130.491 18.3224 130.165 17.6936C129.847 17.0648 129.351 16.5762 128.676 16.2277C128.01 15.8717 127.15 15.6936 126.097 15.6936H122.233V35.4436H118.017ZM143.139 35.7959C142.033 35.7959 141.037 35.5989 140.151 35.205C139.272 34.8035 138.575 34.2126 138.06 33.4323C137.552 32.652 137.299 31.6898 137.299 30.5459C137.299 29.5611 137.48 28.7467 137.844 28.1027C138.208 27.4588 138.704 26.9436 139.333 26.5573C139.961 26.1709 140.67 25.8792 141.458 25.6823C142.253 25.4777 143.075 25.33 143.924 25.2391C144.946 25.133 145.776 25.0383 146.412 24.955C147.049 24.8641 147.511 24.7277 147.799 24.5459C148.094 24.3565 148.242 24.0648 148.242 23.6709V23.6027C148.242 22.7467 147.988 22.0838 147.48 21.6141C146.973 21.1444 146.242 20.9095 145.287 20.9095C144.28 20.9095 143.48 21.1292 142.889 21.5686C142.306 22.008 141.912 22.527 141.708 23.1255L137.867 22.58C138.17 21.5194 138.67 20.633 139.367 19.9209C140.064 19.2012 140.916 18.6633 141.924 18.3073C142.931 17.9436 144.045 17.7618 145.264 17.7618C146.105 17.7618 146.942 17.8603 147.776 18.0573C148.609 18.2542 149.37 18.58 150.06 19.0345C150.749 19.4815 151.302 20.0914 151.719 20.8641C152.143 21.6368 152.355 22.6027 152.355 23.7618V35.4436H148.401V33.0459H148.264C148.014 33.5308 147.662 33.9853 147.208 34.4095C146.761 34.8262 146.196 35.1633 145.514 35.4209C144.84 35.6709 144.049 35.7959 143.139 35.7959ZM144.208 32.7732C145.033 32.7732 145.749 32.6103 146.355 32.2845C146.961 31.9512 147.427 31.5118 147.753 30.9664C148.086 30.4209 148.253 29.8262 148.253 29.1823V27.1255C148.124 27.2315 147.905 27.33 147.594 27.4209C147.291 27.5118 146.95 27.5914 146.571 27.6595C146.192 27.7277 145.817 27.7883 145.446 27.8414C145.075 27.8944 144.753 27.9398 144.48 27.9777C143.867 28.0611 143.317 28.1974 142.833 28.3868C142.348 28.5762 141.965 28.8414 141.685 29.1823C141.405 29.5156 141.264 29.9474 141.264 30.4777C141.264 31.2353 141.541 31.8073 142.094 32.1936C142.647 32.58 143.352 32.7732 144.208 32.7732ZM168.48 25.0118V28.3868H159.185V25.0118H168.48ZM160.458 17.9891V35.4436H156.492V17.9891H160.458ZM171.174 17.9891V35.4436H167.219V17.9891H171.174Z" fill="#D85E32"/>
<defs>
<clipPath id="clip0_296_2">
<rect width="44.86" height="40.2721" fill="white" transform="translate(0 0.863895)"/>
</clipPath>
</defs>
</svg>
