<?xml version="1.0" encoding="utf-8" ?>
<svg xmlns="http://www.w3.org/2000/svg" xmlns:xlink="http://www.w3.org/1999/xlink" width="100" height="100">
	<path fill="#381D05" transform="scale(0.195312 0.195312)" d="M166.12 165.348C168.051 159.828 170.474 154.408 172.643 148.971L183.462 121.118C186.355 113.528 189.418 105.986 192.259 98.3821C194.836 91.4841 196.898 78.6162 205.182 76.8229C221.548 75.6368 216.761 89.4791 212.943 98.7431C204.336 119.627 194.486 144.163 187.597 165.348L325.588 165.348C322.555 157.975 319.996 150.408 317.045 143.002L296.132 91.4484C291.757 80.6098 300.938 73.4649 309.342 78.0421C315.021 81.1348 322.053 103.739 325.075 111.199L343.764 157.889C344.722 160.34 345.813 162.809 346.512 165.348L420.075 165.347C424.44 165.35 429.095 165.075 433.378 166.008C453.926 170.481 451.293 192.567 451.314 208.067C451.346 231.614 450.946 246.949 422.329 246.993C421.498 250.639 421.217 254.577 420.636 258.29L405.038 360.041C404.366 364.154 403.908 368.631 402.477 372.56C401.966 384.886 398.564 397.767 390.942 407.671C377.673 424.911 362.773 425.774 343.407 425.774L170.262 425.773C144.538 425.808 122.479 418.64 112.506 391.554C108.182 379.81 106.699 359.444 104.658 346.751L92.1866 265.698C91.2431 259.472 90.1438 253.246 89.4045 246.993C76.7102 247.181 64.6108 244.728 60.962 230.01C59.2865 223.251 60.0836 197.563 60.2586 189.361C60.4797 179.004 67.3837 168.169 78.041 166.036C83.087 165.026 88.2404 165.336 93.358 165.338L148.467 165.348C154.342 165.347 160.25 165.179 166.12 165.348ZM84.4069 184.98C76.8259 185.996 79.416 198.909 79.4148 204.847C79.4135 211.602 79.1378 218.483 79.4294 225.226C83.5646 228.922 88.1667 227.425 93.3475 227.402L427.313 227.391C429.989 227.376 431.035 226.35 432.396 224.239L432.412 200.456C432.417 195.103 433.786 189.377 430.144 184.98C416.659 184.84 403.157 184.979 389.67 184.979L84.4069 184.98ZM156.623 246.993L108.928 246.993L127.295 362.751C128.393 370.062 128.864 378.103 131.332 385.072C139.399 407.845 161.91 406.233 180.899 406.225L354.561 406.214C380.069 401.838 380.851 385.526 384.421 364.528C387.533 346.222 390.091 327.83 393 309.495L399.47 268.012C400.554 261.072 402.427 254.041 402.477 246.993L156.623 246.993Z"/>
	<path fill="#381D05" transform="scale(0.195312 0.195312)" d="M194.081 379.739C180.15 379.437 182.543 367.492 182.543 357.697L182.54 300.441C182.541 291.236 179.433 276.206 191.003 273.819C204.436 272.777 202.223 287.942 202.231 296.651L202.244 351.701C202.242 362.317 205.851 376.321 194.081 379.739Z"/>
	<path fill="#381D05" transform="scale(0.195312 0.195312)" d="M258.158 379.739C244.224 380.03 246.499 367.985 246.494 358.373L246.494 301.815C246.494 292.072 243.135 275.674 255.536 273.819C269.707 273.562 266.275 290.988 266.278 300.26L266.291 358.229C266.3 366.493 269.061 377.769 258.158 379.739Z"/>
	<path fill="#381D05" transform="scale(0.195312 0.195312)" d="M320.361 379.739C307.318 380.294 310.273 367.453 310.269 358.57L310.265 300.354C310.268 290.819 306.958 275.621 319.301 273.819C331.697 274.077 329.254 288.318 329.258 296.72L329.264 353.008C329.262 363.364 332.742 377.026 320.361 379.739Z"/>
</svg>
