<?xml version="1.0" encoding="utf-8" ?>
<svg xmlns="http://www.w3.org/2000/svg" xmlns:xlink="http://www.w3.org/1999/xlink" width="162" height="119">
	<clipPath id="cl_4">
		<rect x="2.6702881e-05" y="2.2888184e-05" width="162" height="119.00001"/>
	</clipPath>
	<g clip-path="url(#cl_4)">
		<path fill="#D75F32" transform="matrix(0.390711 0 0 0.392215 -19.1133 -40.3948)" d="M260.974 206.472C233.261 209.009 208.744 188.584 206.235 160.867C203.726 133.151 224.176 108.655 251.895 106.174C279.574 103.696 304.028 124.111 306.534 151.788C309.039 179.465 288.649 203.94 260.974 206.472ZM251.969 111.49C227.149 113.92 209.007 136.023 211.462 160.84C213.916 185.657 236.037 203.777 260.852 201.298C285.632 198.823 303.722 176.739 301.27 151.957C298.819 127.174 276.754 109.063 251.969 111.49Z"/>
		<path fill="#BE7D69" transform="matrix(0.390711 0 0 0.392215 -19.1133 -40.3948)" d="M260.852 201.298C236.037 203.777 213.916 185.657 211.462 160.84C209.007 136.023 227.149 113.92 251.969 111.49C276.754 109.063 298.819 127.174 301.27 151.957C303.722 176.739 285.632 198.823 260.852 201.298Z"/>
		<path fill="#D75F32" transform="matrix(0.390711 0 0 0.392215 -19.1133 -40.3948)" d="M120.07 206.07C121.368 181.768 139.145 164.004 163.492 162.377C198.352 161.755 216.589 195.535 202.474 226.736C233.054 201.598 280.726 201.554 310.616 227.546C295.256 198.647 311.275 163.702 344.782 162.517C370.906 161.593 390.831 180.929 391.743 206.752C413.9 209.716 430.553 229.729 430.565 251.887C430.572 265.983 425.197 275.049 415.516 284.671C427.202 288.271 437.69 296.159 445.486 305.499C460.831 323.881 460.723 339.804 460.741 362.111C460.749 372.19 463.427 386.328 454.477 393.531C446.356 400.066 436.844 396.319 427.605 395.301C415.348 393.272 392.89 391.454 380.343 391.027C366.277 390.549 344.55 392.387 329.903 394.26C323.864 402.422 320.071 402.326 311.005 402.318L206.432 402.313C195.328 402.318 189.014 404.799 181.787 394.26C151.502 389.454 107.315 391.966 77.6288 395.994C65.5062 397.64 52.6512 396.679 51.3228 380.475C50.4873 370.283 50.7353 347.47 52.0138 338.221C55.4549 313.328 73.2217 294.28 96.0175 284.671C67.5194 256.497 82.3037 213.711 120.07 206.07ZM378.929 183.704C350.514 145.959 293.876 181.322 312.596 220.514C318.143 231.716 328.124 238.538 340.459 240.573C347.124 217.199 363.939 206.591 387.005 206.07C386.241 198.107 384.442 189.88 378.929 183.704ZM260.496 213.018C213.879 211.26 175.69 246.699 177.995 294.328C181.496 297.183 185.061 299.987 188.431 302.996C192.185 306.451 195.485 309.899 198.493 314.033C205.294 305.997 213.908 301.826 222.502 296.252C205.798 281.761 208.437 254.556 220.838 237.872C224.665 233.253 229.394 229.561 234.672 226.736C272.672 208.717 312.292 242.773 298.371 281.363C296.508 286.531 293.341 292.582 289.168 296.252L291.627 297.867C299.752 301.562 308.08 306.764 313.469 314.033C318.439 307.538 325.76 297.606 333.325 294.328C333.946 276.866 327.951 247.827 313.469 237.872C302.099 222.799 278.346 214.76 260.496 213.018ZM109.238 292.807C106.288 291.565 103.538 289.984 100.766 288.392C77.1751 296.067 57.8418 319.292 56.66 344.388C56.1902 354.365 55.969 369.227 56.5768 379.181C57.0943 387.656 64.5499 393.966 72.8563 391.003C77.8843 390.906 82.8236 390.019 87.8072 389.413C118.414 385.691 149.825 386.211 180.496 388.532L180.484 367.863C180.483 360.486 180.197 353.021 181.787 345.773C182.833 336.194 188.823 325.647 194.778 318.247C186.73 304.814 168.714 293.666 154.306 288.392C138.111 295.554 128.014 300.335 109.238 292.807ZM236.789 307.108C233.061 305.259 229.729 303.149 226.567 300.437C210.519 307.372 195.873 321.022 189.363 337.464C184.803 348.98 184.716 373.226 185.484 386.767C185.435 396.034 192.124 398.021 200.29 397.278L305.991 397.288C315.11 397.311 325.344 399.547 326.055 386.679C326.347 381.402 326.037 375.984 326.019 370.693C325.955 351.377 325.599 335.553 311.56 319.782C306.908 311.355 293.703 304.407 285.487 300.437C271.537 312.544 253.762 314.596 236.789 307.108ZM163.492 167.742C141.954 168.065 127.09 185.688 124.923 206.07C145.448 204.245 163.222 216.945 170.579 235.69C171.182 237.625 171.801 239.557 172.341 241.511C218.483 232.142 208.121 165.883 163.492 167.742ZM123.915 210.663C101.666 212.425 85.0442 231.867 86.7637 254.119C88.4833 276.371 107.895 293.029 130.15 291.352C152.464 289.669 169.176 270.195 167.452 247.884C165.728 225.573 146.222 208.897 123.915 210.663ZM380.537 211.137C358.454 213.532 342.514 233.407 344.973 255.484C347.431 277.56 367.352 293.442 389.421 290.92C411.401 288.408 427.204 268.586 424.756 246.599C422.307 224.613 402.531 208.752 380.537 211.137ZM254.959 226.506C232.836 226.99 215.308 245.341 215.838 267.463C216.367 289.585 234.755 307.075 256.876 306.499C278.932 305.925 296.359 287.604 295.831 265.547C295.303 243.49 277.018 226.024 254.959 226.506ZM322.556 240.004C333.39 255.522 338.714 271.417 338.451 290.457C341.615 288.543 345.174 286.907 348.101 284.671C349.745 284.242 351.447 283.887 352.996 283.173C342.818 272.234 338.139 259.818 339.659 245.032C329.533 244.281 330.031 242.353 322.556 240.004ZM189.224 240.004C183.913 243.396 179.062 245.681 172.811 246.779C172.773 263.402 169.389 272.644 157.87 284.671C160.028 285.129 161.699 285.63 163.492 286.966C166.937 287.83 169.574 289.666 172.811 290.981C173.724 274.144 176.567 259.964 185.893 245.284C186.485 244.35 189.576 240.751 189.224 240.004ZM356.597 286.966C340.596 293.631 326.388 303.361 316.981 318.247C329.4 334.698 331.098 348.078 331.103 367.965L331.092 388.532C343.868 388.943 359.411 386.227 372.754 385.833C387.146 385.408 407.853 388.055 422.738 389.67C430.924 390.392 445.348 394.788 451.224 389.729C457.689 384.163 455.44 368.175 455.454 360.382C455.466 353.987 455.733 347.428 455.116 341.056C452.721 316.33 434.176 295.402 410.623 288.392C395.948 296.828 379.26 298.281 363.967 290.957C362.359 290.187 358.088 287.012 356.597 286.966Z"/>
		<path fill="#BE7D69" transform="matrix(0.390711 0 0 0.392215 -19.1133 -40.3948)" d="M124.923 206.07C127.09 185.688 141.954 168.065 163.492 167.742C208.121 165.883 218.483 232.142 172.341 241.511C171.801 239.557 171.182 237.625 170.579 235.69C163.222 216.945 145.448 204.245 124.923 206.07Z"/>
		<path fill="#BE7D69" transform="matrix(0.390711 0 0 0.392215 -19.1133 -40.3948)" d="M312.596 220.514C293.876 181.322 350.514 145.959 378.929 183.704C384.442 189.88 386.241 198.107 387.005 206.07C363.939 206.591 347.124 217.199 340.459 240.573C328.124 238.538 318.143 231.716 312.596 220.514Z"/>
		<path fill="#E7CFC3" transform="matrix(0.390711 0 0 0.392215 -19.1133 -40.3948)" d="M130.15 291.352C107.895 293.029 88.4833 276.371 86.7637 254.119C85.0442 231.867 101.666 212.425 123.915 210.663C146.222 208.897 165.728 225.573 167.452 247.884C169.176 270.195 152.464 289.669 130.15 291.352Z"/>
		<path fill="#E7CFC3" transform="matrix(0.390711 0 0 0.392215 -19.1133 -40.3948)" d="M389.421 290.92C367.352 293.442 347.431 277.56 344.973 255.484C342.514 233.407 358.454 213.532 380.537 211.137C402.531 208.752 422.307 224.613 424.756 246.599C427.204 268.586 411.401 288.408 389.421 290.92Z"/>
		<path fill="#A8B858" transform="matrix(0.390711 0 0 0.392215 -19.1133 -40.3948)" d="M177.995 294.328C175.69 246.699 213.879 211.26 260.496 213.018C278.346 214.76 302.099 222.799 313.469 237.872C313.826 254.58 311.606 272.099 301.583 286.004C298.546 290.217 294.743 293.751 291.627 297.867L289.168 296.252C293.341 292.582 296.508 286.531 298.371 281.363C312.292 242.773 272.672 208.717 234.672 226.736C229.394 229.561 224.665 233.253 220.838 237.872C208.437 254.556 205.798 281.761 222.502 296.252C213.908 301.826 205.294 305.997 198.493 314.033C195.485 309.899 192.185 306.451 188.431 302.996C185.061 299.987 181.496 297.183 177.995 294.328Z"/>
		<path fill="#E7CFC3" transform="matrix(0.390711 0 0 0.392215 -19.1133 -40.3948)" d="M256.876 306.499C234.755 307.075 216.367 289.585 215.838 267.463C215.308 245.341 232.836 226.99 254.959 226.506C277.018 226.024 295.303 243.49 295.831 265.547C296.359 287.604 278.932 305.925 256.876 306.499Z"/>
		<path fill="#839E18" transform="matrix(0.390711 0 0 0.392215 -19.1133 -40.3948)" d="M313.469 237.872C327.951 247.827 333.946 276.866 333.325 294.328C325.76 297.606 318.439 307.538 313.469 314.033C308.08 306.764 299.752 301.562 291.627 297.867C294.743 293.751 298.546 290.217 301.583 286.004C311.606 272.099 313.826 254.58 313.469 237.872Z"/>
		<path fill="#E7CFC3" transform="matrix(0.390711 0 0 0.392215 -19.1133 -40.3948)" d="M316.981 318.247C326.388 303.361 340.596 293.631 356.597 286.966C358.088 287.012 362.359 290.187 363.967 290.957C379.26 298.281 395.948 296.828 410.623 288.392C434.176 295.402 452.721 316.33 455.116 341.056C455.733 347.428 455.466 353.987 455.454 360.382C455.44 368.175 457.689 384.163 451.224 389.729C445.348 394.788 430.924 390.392 422.738 389.67C407.853 388.055 387.146 385.408 372.754 385.833C359.411 386.227 343.868 388.943 331.092 388.532L331.103 367.965C331.098 348.078 329.4 334.698 316.981 318.247Z"/>
		<path fill="#A8B858" transform="matrix(0.390711 0 0 0.392215 -19.1133 -40.3948)" d="M100.766 288.392C103.538 289.984 106.288 291.565 109.238 292.807C128.014 300.335 138.111 295.554 154.306 288.392C168.714 293.666 186.73 304.814 194.778 318.247C188.823 325.647 182.833 336.194 181.787 345.773C180.197 353.021 180.483 360.486 180.484 367.863L180.496 388.532C149.825 386.211 118.414 385.691 87.8072 389.413C82.8236 390.019 77.8843 390.906 72.8563 391.003C64.5499 393.966 57.0943 387.656 56.5768 379.181C55.969 369.227 56.1902 354.365 56.66 344.388C57.8418 319.292 77.1751 296.067 100.766 288.392Z"/>
		<path fill="#BBA096" transform="matrix(0.390711 0 0 0.392215 -19.1133 -40.3948)" d="M226.567 300.437C229.729 303.149 233.061 305.259 236.789 307.108C234.352 309.577 230.346 310.812 227.531 312.924C198.354 334.814 200.401 349.626 200.27 381.008C200.253 385.21 202.18 387.863 197.59 387.695L197.623 387.899C198.454 387.998 199.258 388.009 200.094 388.004C200.237 394.951 201.927 400.776 191.318 396.213C187.139 394.415 186.335 390.713 185.484 386.767C184.716 373.226 184.803 348.98 189.363 337.464C195.873 321.022 210.519 307.372 226.567 300.437Z"/>
		<path fill="#BE7D69" transform="matrix(0.390711 0 0 0.392215 -19.1133 -40.3948)" d="M236.789 307.108C253.762 314.596 271.537 312.544 285.487 300.437C293.703 304.407 306.908 311.355 311.56 319.782C325.599 335.553 325.955 351.377 326.019 370.693C326.037 375.984 326.347 381.402 326.055 386.679C325.344 399.547 315.11 397.311 305.991 397.288L200.29 397.278C192.124 398.021 185.435 396.034 185.484 386.767C186.335 390.713 187.139 394.415 191.318 396.213C201.927 400.776 200.237 394.951 200.094 388.004C199.258 388.009 198.454 387.998 197.623 387.899L197.59 387.695C202.18 387.863 200.253 385.21 200.27 381.008C200.401 349.626 198.354 334.814 227.531 312.924C230.346 310.812 234.352 309.577 236.789 307.108Z"/>
	</g>
</svg>
