<svg width="17" height="17" viewBox="0 0 17 17" fill="none" xmlns="http://www.w3.org/2000/svg">
<g clip-path="url(#clip0_282_408)">
<path fill-rule="evenodd" clip-rule="evenodd" d="M4.68259 7.76569L9.83348 2.6148C9.8792 2.56919 9.91547 2.51502 9.94022 2.45537C9.96497 2.39573 9.97771 2.33179 9.97771 2.26721C9.97771 2.20264 9.96497 2.1387 9.94022 2.07906C9.91547 2.01941 9.8792 1.96524 9.83348 1.91963L9.15402 1.24018C9.10842 1.19446 9.05424 1.15819 8.9946 1.13344C8.93496 1.10869 8.87102 1.09595 8.80644 1.09595C8.74187 1.09595 8.67793 1.10869 8.61828 1.13344C8.55864 1.15819 8.50446 1.19446 8.45886 1.24018L0.951477 8.74756L8.45886 16.2549C8.50446 16.3007 8.55864 16.3369 8.61828 16.3617C8.67793 16.3864 8.74187 16.3992 8.80644 16.3992C8.87102 16.3992 8.93496 16.3864 8.9946 16.3617C9.05424 16.3369 9.10842 16.3007 9.15402 16.2549L9.83348 15.5755C9.8792 15.5299 9.91547 15.4757 9.94022 15.4161C9.96497 15.3564 9.97771 15.2925 9.97771 15.2279C9.97771 15.1633 9.96497 15.0994 9.94022 15.0398C9.91547 14.9801 9.8792 14.9259 9.83348 14.8803L4.68259 9.72943H16.1705C16.3007 9.72943 16.4255 9.67771 16.5176 9.58564C16.6097 9.49357 16.6614 9.3687 16.6614 9.2385V8.25663C16.6614 8.12642 16.6097 8.00155 16.5176 7.90948C16.4255 7.81741 16.3007 7.76569 16.1705 7.76569H4.68259Z" fill="black"/>
</g>
<defs>
<clipPath id="clip0_282_408">
<rect width="16.6718" height="15.3893" fill="white" transform="translate(0.310242 0.747559)"/>
</clipPath>
</defs>
</svg>
