<?xml version="1.0" encoding="utf-8" ?>
<svg xmlns="http://www.w3.org/2000/svg" xmlns:xlink="http://www.w3.org/1999/xlink" width="100" height="100">
	<path fill="#381D05" transform="scale(0.195312 0.195312)" d="M266.364 432.565C166.363 438.38 80.5757 362.042 74.7321 262.043C68.8885 162.044 145.201 76.2344 245.198 70.3618C345.237 64.4868 431.089 140.837 436.935 240.877C442.781 340.918 366.406 426.748 266.364 432.565ZM247.122 95.9443C238.749 96.9643 230.411 97.5179 222.156 99.3722C125.945 120.984 72.7229 230.456 116.712 319.61C119.86 325.99 123.655 332.142 127.38 338.202C130.086 334.454 132.503 330.524 135.143 326.735C149.477 306.165 182.313 277.517 207.448 271.159C229.051 282.618 238.717 285.608 264.56 285.257L264.939 285.166C282.497 281.069 287.416 281.106 305.001 271.159C336.075 283.296 368.349 308.494 384.612 338.202C388.717 331.009 393.031 324.044 396.497 316.499C429.766 244.069 402.355 155.836 332.858 116.367C305.311 100.723 278.646 94.9874 247.122 95.9443Z"/>
	<path fill="#381D05" transform="scale(0.195312 0.195312)" d="M260.768 259.607C226.15 262.331 195.889 236.451 193.211 201.829C190.533 167.207 216.455 136.981 251.08 134.35C285.639 131.724 315.795 157.585 318.468 192.141C321.141 226.697 295.32 256.888 260.768 259.607Z"/>
</svg>
